PathFileType	4	(X/Y/Z)	5_2_99_p1_0-328.trc
DataRate	CameraRate	NumFrames	NumMarkers	Units	OrigDataRate	OrigDataStartFrame	OrigNumFrames
59.0	59.0	4	27	m	59.0	0	329
Frame#	Time	RHip			RKnee			RAnkle			RBigToe			RSmallToe			RHeel			LHip			LKnee			LAnkle			LBigToe			LSmallToe			LHeel			Neck			Head			Nose			RShoulder			RElbow			RWrist			RThumb			RIndex			RPinky			LShoulder			LElbow			LWrist			LThumb			LIndex			LPinky			
		X1	Y1	Z1	X2	Y2	Z2	X3	Y3	Z3	X4	Y4	Z4	X5	Y5	Z5	X6	Y6	Z6	X7	Y7	Z7	X8	Y8	Z8	X9	Y9	Z9	X10	Y10	Z10	X11	Y11	Z11	X12	Y12	Z12	X13	Y13	Z13	X14	Y14	Z14	X15	Y15	Z15	X16	Y16	Z16	X17	Y17	Z17	X18	Y18	Z18	X19	Y19	Z19	X20	Y20	Z20	X21	Y21	Z21	X22	Y22	Z22	X23	Y23	Z23	X24	Y24	Z24	X25	Y25	Z25	X26	Y26	Z26	X27	Y27	Z27	
0	0.0	0.36886638989197196	0.5348047040401008	0.8269140824597323	0.38077925566733717	0.6102288251730766	1.227722026704785	0.3788637052954608	0.6799541183274822	1.6558584262501288	0.38881020684316575	0.6074764455887267	1.6843368092529674	0.44462407066517123	0.6741350939254204	1.6970836422727142	0.35412398876105566	0.6979021083697073	1.6905635644064763	0.14263430692420082	0.5243768443196462	0.8606092795279009	0.16601588240617804	0.5853606596989617	1.256054064281717	0.17971997851123053	0.6565349470586787	1.6718834858026905	0.2953207490416887	0.6001040201354441	1.7126287626081125	0.24484553293423045	0.6081441328405035	1.7365876572678949	0.14689535351516733	0.7023539383876047	1.7442107300886511	0.2305974270282234	0.4408788560216599	0.31055626728995517	0.25108219796730363	0.3230307562576198	0.06866218961528121	0.2633832068105051	0.31300580269730627	0.21416720760973515	0.405196402538111	0.45217400178061934	0.39224189995715975	0.42908707805779756	0.46142977882002245	0.6611569754926616	0.33800315795920366	0.3667086906092101	0.8517539137699771	0.24040071533594912	0.4171600631610659	0.9674169781931143	0.2431433754902762	0.4211250002234293	0.9868407439262687	0.2912086234599367	0.36791060571499096	0.9791965737498839	0.09178465488570542	0.45016600277041413	0.4113566848750891	0.09051924222160138	0.382415872200612	0.6699627091390803	0.24689026201005895	0.30222479132506364	0.8325132900267227	0.3066100521444204	0.3579723757801189	0.9229395653930134	0.31210751949684123	0.36658078770950714	0.9588184458397903	0.26449612987249066	0.36006510918454643	0.9709841075160345
1	0.01694915254237288	0.3631583280151977	0.5493855145996838	0.8332899139932871	0.37953852960851947	0.626056858092187	1.2360672448637762	0.38145124429556804	0.6957187253259891	1.6617151424511325	0.3890217980026063	0.6054399377428857	1.6829069636835776	0.4471736819531255	0.6431330733025374	1.6840107154729742	0.35517270734209266	0.7369492741140165	1.718095541694999	0.1398857255751518	0.5103152650530993	0.8583521895023217	0.1667003937791479	0.5878672653117882	1.2695371754999212	0.18068609850424402	0.6596287937784122	1.6777025745857148	0.2803681833984644	0.597051819550257	1.713948689970826	0.23118053471032407	0.6079312652487963	1.735241439581338	0.15084866686104784	0.7193010299361173	1.7495175666406857	0.23055246088005701	0.44068333622661904	0.3105516188743911	0.2510639486862666	0.32322047037148155	0.06882727323441104	0.26335619877549993	0.31316268493869465	0.2141241237028761	0.3982693496909803	0.43655824813740624	0.38952947313506786	0.43325046745093476	0.4654293644409998	0.6605837415796343	0.33943630273501585	0.3859847182622749	0.8686502503937387	0.23981505942500173	0.41529574462732355	0.9670536261872895	0.24257441645013292	0.4187374390730795	0.986961523593831	0.2865205241259706	0.35828066528392777	0.9798318999465968	0.09053305044579181	0.43816552647554213	0.4115254144783163	0.08614006290384339	0.3805873907715211	0.6668985275786583	0.24574662242055928	0.2925125144261055	0.8425134029440994	0.3069635203966015	0.3488817112233976	0.9272659423701199	0.31381071644741265	0.35544800567085927	0.9667089489744676	0.2614738173647934	0.38023206380929003	0.9851837199151003
2	0.03389830508474576	0.3635137139096377	0.5497958887019819	0.841490710509772	0.3797866429156942	0.6299273885283326	1.245027685006084	0.38009902838959647	0.6833913320940029	1.6617047920672212	0.3874640702350453	0.5895390024385753	1.673102478831032	0.4472029609918316	0.64285881307443	1.6840735105328632	0.355020900808152	0.7369291632258071	1.714576755272558	0.1405447721147131	0.5124646425743576	0.8631600757973417	0.16608806749413751	0.5898581639670843	1.2746423973236618	0.18092524047597922	0.6596989917030325	1.6773708788558896	0.28551556309894954	0.5971611136827858	1.7088508720772146	0.24230400544430106	0.5933316665864778	1.7312275876433307	0.15847040165084125	0.704230960704054	1.7426485569106005	0.2305213835500986	0.4407899883629571	0.3104944509965631	0.2508413420407266	0.32171252044445287	0.06578770114713035	0.2630086132809712	0.31173485388271077	0.21102990430981844	0.4051620837791179	0.45207797783208314	0.3922224630348248	0.4332415998417234	0.4654358879697988	0.6604466068737878	0.33024629541590195	0.38486957397178645	0.8614139228067308	0.25402006955332407	0.39201835563475235	0.9727292859082428	0.2554410836085273	0.3928427324602493	0.9805492910411525	0.28619475617467205	0.3582918124422634	0.976947491122502	0.0906022134995346	0.43822836648903535	0.41148026019342826	0.08627879184046704	0.380354104785788	0.6669072147566599	0.24549089853286266	0.2933549098035112	0.849830393450334	0.31190524205968323	0.3457664544430363	0.9382152695288759	0.3123705615801715	0.3633414580294111	0.9706024714284732	0.26133350574955655	0.380408734623827	0.9859807300609758
3	0.05084745762711865	0.3642927227682865	0.5505512513409657	0.8417559561550378	0.37517082360546805	0.6238449423511252	1.2364063521430302	0.37994752714075186	0.6836340031035452	1.6617923518241036	0.3935474179396958	0.5756546938385829	1.6654129361188414	0.44757111532054095	0.6429408919308934	1.6831442175303093	0.35111924990286625	0.7343605536070743	1.7179475901350287	0.1417892775443307	0.5135315671352512	0.8641696506538634	0.16696874179717316	0.5883180642555553	1.2704271049585736	0.18092744205314323	0.6599268851334603	1.6775924061362337	0.2965065667888692	0.5874676406163581	1.7074104487085942	0.2523240081268144	0.5809690743063235	1.7245143517959474	0.15008392789502953	0.7212808699062956	1.7559766532963823	0.23049093635724202	0.4407867362910489	0.3104584102548925	0.2508247973819568	0.3217475273413799	0.06572287369039985	0.2629572221790302	0.31172893328998913	0.2110104630153906	0.4051964080080404	0.4520996978279046	0.3922483413304179	0.433594547138376	0.464390487625051	0.6563095677272774	0.3328076964880888	0.3677675814153846	0.8435954702161178	0.25371383448117374	0.42193882537094335	0.9815456568449815	0.2551990096597163	0.3933447637703832	0.979764800992004	0.2822540618646825	0.3523776810077563	0.9718348709754344	0.09089846885750848	0.4397820578620423	0.4148865215477053	0.0862856882166991	0.38013403475931634	0.667066316147962	0.24226250627476936	0.31899206819851383	0.8580024246129736	0.3084116497809601	0.3723054872305267	0.9439139967719933	0.31375124033464874	0.3777312715075065	0.9733162834616179	0.2609222298584389	0.38162504456716423	0.9872038054212791
